<svg xmlns="http://www.w3.org/2000/svg" viewBox="0 0 475.14 442.48"><defs><style>.cls-1,.cls-4{fill:#92e3a9;}.cls-2,.cls-6{fill:#fff;}.cls-2{opacity:0.7;}.cls-3,.cls-7,.cls-8{fill:none;}.cls-3,.cls-4,.cls-5,.cls-6,.cls-7,.cls-9{stroke:#263238;}.cls-3,.cls-4,.cls-5,.cls-6,.cls-7,.cls-8,.cls-9{stroke-linecap:round;stroke-linejoin:round;}.cls-10,.cls-5{fill:#263238;}.cls-7{stroke-width:0.25px;}.cls-8{stroke:#8c8c8c;}.cls-9{fill:#828282;}</style></defs><g id="Background_Simple" data-name="Background Simple"><path class="cls-1" d="M452.28,118.76q-2.49-4.14-5.18-8.12c-24-35.26-64-59.4-102.78-70.33a220.85,220.85,0,0,0-51.9-8C178.07,28.21,136.07,122.49,99.23,146.79S5.85,212.62,13,299.84c5.38,66.32,43.11,129.73,112,158.58a194.27,194.27,0,0,0,23.91,8.25,227.93,227.93,0,0,0,50.5,7.77c52.09,2.32,94.39-10.24,135.76-41.86,9.62-7.35,19.19-15.64,31.67-16.55,9.07-.66,17.67,2.6,8.19,11.37-11.15,10.3,1.71,30.57,30,16.49,47.25-23.52,66.69-74.26,75.85-125.85C492.08,254.71,486.63,176,452.28,118.76Z" transform="translate(-12.34 -32.23)"/><path class="cls-2" d="M452.28,118.76q-2.49-4.14-5.18-8.12c-24-35.26-64-59.4-102.78-70.33a220.85,220.85,0,0,0-51.9-8C178.07,28.21,136.07,122.49,99.23,146.79S5.85,212.62,13,299.84c5.38,66.32,43.11,129.73,112,158.58a194.27,194.27,0,0,0,23.91,8.25,227.93,227.93,0,0,0,50.5,7.77c52.09,2.32,94.39-10.24,135.76-41.86,9.62-7.35,19.19-15.64,31.67-16.55,9.07-.66,17.67,2.6,8.19,11.37-11.15,10.3,1.71,30.57,30,16.49,47.25-23.52,66.69-74.26,75.85-125.85C492.08,254.71,486.63,176,452.28,118.76Z" transform="translate(-12.34 -32.23)"/></g><g id="Floor"><line class="cls-3" x1="26.78" y1="368.6" x2="463.42" y2="368.6"/><line class="cls-3" x1="10.58" y1="368.6" x2="19.86" y2="368.6"/></g><g id="Plant"><path class="cls-4" d="M399.05,278.78s-2.51,6.9-7.84,7.85-14.74-9.42-8.78-14.75S396.54,275,399.05,278.78Z" transform="translate(-12.34 -32.23)"/><path class="cls-4" d="M407.21,244.9s-7.84,19.14-4.7,28.55,22.58,16.31,28.23,4.08-6.9-29.49-11.61-33.26S408.78,241.76,407.21,244.9Z" transform="translate(-12.34 -32.23)"/><path class="cls-4" d="M453,253.06S439.53,265.29,438,277.53s7.53,16.63,16.94,15.06,14.12-25.42,11.29-36.4S453,253.06,453,253.06Z" transform="translate(-12.34 -32.23)"/><path class="cls-4" d="M455.53,320.82s-15.06.63-15.69,7.85,6.59,8.78,13.8,2.51S461.8,321.14,455.53,320.82Z" transform="translate(-12.34 -32.23)"/><path class="cls-3" d="M440.09,330.39S452,325,457.3,324" transform="translate(-12.34 -32.23)"/><path class="cls-4" d="M418.19,335.88s-1.57,7.53-7.21,10.36S395.29,343.1,400.62,334,415.37,332.12,418.19,335.88Z" transform="translate(-12.34 -32.23)"/><path class="cls-4" d="M405,312.35s-2.83-6.27-13.81-2.19-15.37,10.35-8.47,12.55S405,312.35,405,312.35Z" transform="translate(-12.34 -32.23)"/><path class="cls-3" d="M402.91,312.07s-11.63,1.25-17.92,6.6" transform="translate(-12.34 -32.23)"/><path class="cls-4" d="M436.39,237.06s1.88,4.39,5.65,3.45,4.7-6.59,10.66-5,11,8.47,11,5.33-7.53-11.29-16-11.29S436.7,233,436.39,237.06Z" transform="translate(-12.34 -32.23)"/><path class="cls-3" d="M428.84,362.73s1.4-26.25,0-42.66-8-35.63-8-35.63L413,249.19" transform="translate(-12.34 -32.23)"/><path class="cls-3" d="M432.12,362.73s.47-21.56,2.34-35.63S443.84,291,443.84,291l14.09-30.19" transform="translate(-12.34 -32.23)"/><path class="cls-3" d="M440.09,330.39s-3.28.93-5.16,32.81" transform="translate(-12.34 -32.23)"/><path class="cls-3" d="M424.15,362.26s.94-16.87-.94-23-5-3.41-5-3.41-8.68,1-11.82,6.05" transform="translate(-12.34 -32.23)"/><path class="cls-3" d="M426.3,332.86c2.46,13.74.19,28.94.19,28.94" transform="translate(-12.34 -32.23)"/><path class="cls-3" d="M405,312.35s13.5-2.59,19.13,12.41a41.52,41.52,0,0,1,1.41,4.59" transform="translate(-12.34 -32.23)"/><path class="cls-4" d="M461.4,297.82s2.82-6.28,13.8-2.2,15.37,10.36,8.47,12.55S461.4,297.82,461.4,297.82Z" transform="translate(-12.34 -32.23)"/><path class="cls-3" d="M463.9,298.23s11.32-.63,16.67,6" transform="translate(-12.34 -32.23)"/><path class="cls-3" d="M449.39,300.57a19.51,19.51,0,0,0-7.13,9.66c-5.63,15-5,52-5,52" transform="translate(-12.34 -32.23)"/><path class="cls-3" d="M461.4,297.82a17.44,17.44,0,0,0-9.36,1.27" transform="translate(-12.34 -32.23)"/><path class="cls-3" d="M413.85,288.35a44.48,44.48,0,0,1,8,14.38c7.5,21.56,10.31,49.22,8.9,59.53" transform="translate(-12.34 -32.23)"/><path class="cls-3" d="M412.22,286.56c-6.62-6.76-13.17-7.78-13.17-7.78s-9.66-2.55-13.43.9" transform="translate(-12.34 -32.23)"/><path class="cls-3" d="M432.9,308.53c-.46,27.22-.78,54.2-.78,54.2" transform="translate(-12.34 -32.23)"/><path class="cls-3" d="M433,305.15c.31-18,.67-35.61,1-45.08.94-24.38,2.4-23,2.4-23s1.73-5.48,11.48-4.85" transform="translate(-12.34 -32.23)"/><path class="cls-5" d="M447.14,410.55H416.63a4.06,4.06,0,0,1-4-3.67l-4.38-45.08h47.35l-4.38,45.08A4.06,4.06,0,0,1,447.14,410.55Z" transform="translate(-12.34 -32.23)"/><polygon class="cls-6" points="397.28 344.1 397.78 349.26 441.31 349.26 441.81 344.1 397.28 344.1"/><polygon class="cls-6" points="440.21 360.51 440.49 357.69 398.6 357.69 398.88 360.51 440.21 360.51"/></g><g id="Graphics"><line class="cls-3" x1="44.36" y1="154.44" x2="44.36" y2="163.31"/><line class="cls-3" x1="48.79" y1="158.88" x2="39.92" y2="158.88"/><line class="cls-3" x1="421.55" y1="177.29" x2="421.55" y2="186.16"/><line class="cls-3" x1="425.98" y1="181.72" x2="417.11" y2="181.72"/><line class="cls-3" x1="373.84" y1="74.94" x2="373.84" y2="83.81"/><line class="cls-3" x1="378.27" y1="79.38" x2="369.4" y2="79.38"/><line class="cls-3" x1="194.54" y1="23.38" x2="194.54" y2="32.25"/><line class="cls-3" x1="198.97" y1="27.82" x2="190.1" y2="27.82"/><line class="cls-3" x1="139.13" y1="343.87" x2="139.13" y2="352.74"/><line class="cls-3" x1="143.57" y1="348.3" x2="134.7" y2="348.3"/><line class="cls-3" x1="29.09" y1="279.63" x2="29.09" y2="288.5"/><line class="cls-3" x1="33.53" y1="284.07" x2="24.66" y2="284.07"/><circle class="cls-3" cx="348.06" cy="78.7" r="7.33" transform="translate(179.4 367.26) rotate(-76.76)"/><circle class="cls-3" cx="328.87" cy="375.73" r="7.33" transform="translate(-124.54 577.58) rotate(-76.76)"/><circle class="cls-3" cx="38.73" cy="248.03" r="7.33" transform="translate(-104.31 1.47) rotate(-22.5)"/><path class="cls-3" d="M388.73,153.7a1.67,1.67,0,1,1-1.67-1.67A1.66,1.66,0,0,1,388.73,153.7Z" transform="translate(-12.34 -32.23)"/><path class="cls-3" d="M126.21,78.83a1.67,1.67,0,1,1-1.67-1.67A1.66,1.66,0,0,1,126.21,78.83Z" transform="translate(-12.34 -32.23)"/><path class="cls-3" d="M262.28,371.89a1.67,1.67,0,1,1-1.66-1.67A1.66,1.66,0,0,1,262.28,371.89Z" transform="translate(-12.34 -32.23)"/></g><g id="Device"><path class="cls-6" d="M248.2,376.39l-3.33-26.78H191l-3.32,26.78c-.05.53-.11,1.05-.18,1.58A29.44,29.44,0,0,1,172,399.66l-14.44,7.72H278.33l-14.45-7.72A29.42,29.42,0,0,1,248.38,378C248.3,377.44,248.24,376.92,248.2,376.39Z" transform="translate(-12.34 -32.23)"/><polygon class="cls-5" points="234.04 334.38 232.53 317.38 219.52 317.38 191.64 317.38 178.63 317.38 177.13 334.38 234.04 334.38"/><rect class="cls-6" x="145.18" y="375.15" width="120.64" height="3.17"/><line class="cls-3" x1="179.91" y1="356.85" x2="223.87" y2="356.85"/><line class="cls-3" x1="235.2" y1="356.85" x2="229.76" y2="356.85"/><path class="cls-6" d="M68.18,88.23H343a7.95,7.95,0,0,1,7.95,7.95V312.61a10.2,10.2,0,0,1-10.2,10.2H70.43a10.2,10.2,0,0,1-10.2-10.2V96.18A7.95,7.95,0,0,1,68.18,88.23Z"/><path class="cls-5" d="M363.27,316.16V129a8.55,8.55,0,0,0-8.55-8.56H81.13A8.56,8.56,0,0,0,72.57,129V316.16Z" transform="translate(-12.34 -32.23)"/><rect class="cls-4" x="73.32" y="97.46" width="264.53" height="186.48"/><path class="cls-5" d="M107,109.93h169.2a6.41,6.41,0,0,1,6.41,6.41v10.72a0,0,0,0,1,0,0h-182a0,0,0,0,1,0,0V116.34A6.41,6.41,0,0,1,107,109.93Z"/><path class="cls-6" d="M261.35,150.73a2.64,2.64,0,1,1-2.64-2.64A2.64,2.64,0,0,1,261.35,150.73Z" transform="translate(-12.34 -32.23)"/><path class="cls-6" d="M271.9,150.73a2.64,2.64,0,1,1-2.63-2.64A2.64,2.64,0,0,1,271.9,150.73Z" transform="translate(-12.34 -32.23)"/><path class="cls-6" d="M282.46,150.73a2.64,2.64,0,1,1-2.64-2.64A2.64,2.64,0,0,1,282.46,150.73Z" transform="translate(-12.34 -32.23)"/><path class="cls-3" d="M107,109.93h169.2a6.41,6.41,0,0,1,6.41,6.41V257.9a6.35,6.35,0,0,1-6.35,6.35H107a6.35,6.35,0,0,1-6.35-6.35V116.34a6.41,6.41,0,0,1,6.41-6.41Z"/><line class="cls-7" x1="109.31" y1="123.17" x2="109.31" y2="264.79"/><line class="cls-7" x1="120.33" y1="123.17" x2="120.33" y2="264.79"/><line class="cls-7" x1="131.35" y1="123.17" x2="131.35" y2="264.79"/><line class="cls-7" x1="142.37" y1="123.17" x2="142.37" y2="264.79"/><line class="cls-7" x1="153.38" y1="123.17" x2="153.38" y2="264.79"/><line class="cls-7" x1="164.4" y1="123.17" x2="164.4" y2="264.79"/><line class="cls-7" x1="175.42" y1="123.17" x2="175.42" y2="264.79"/><line class="cls-7" x1="186.44" y1="123.17" x2="186.44" y2="264.79"/><line class="cls-7" x1="197.46" y1="123.17" x2="197.46" y2="264.79"/><line class="cls-7" x1="208.48" y1="123.17" x2="208.48" y2="264.79"/><line class="cls-7" x1="219.5" y1="123.17" x2="219.5" y2="264.79"/><line class="cls-7" x1="230.51" y1="123.17" x2="230.51" y2="264.79"/><line class="cls-7" x1="241.53" y1="123.17" x2="241.53" y2="264.79"/><line class="cls-7" x1="252.55" y1="123.17" x2="252.55" y2="264.79"/><line class="cls-7" x1="263.57" y1="123.17" x2="263.57" y2="264.79"/><line class="cls-7" x1="274.59" y1="123.17" x2="274.59" y2="264.79"/><line class="cls-7" x1="100.89" y1="137.46" x2="283.01" y2="137.46"/><line class="cls-7" x1="100.89" y1="150.81" x2="283.01" y2="150.81"/><line class="cls-7" x1="100.89" y1="164.17" x2="283.01" y2="164.17"/><line class="cls-7" x1="100.89" y1="177.52" x2="283.01" y2="177.52"/><line class="cls-7" x1="100.89" y1="190.88" x2="283.01" y2="190.88"/><line class="cls-7" x1="100.89" y1="204.24" x2="283.01" y2="204.24"/><line class="cls-7" x1="100.89" y1="217.59" x2="283.01" y2="217.59"/><line class="cls-7" x1="100.89" y1="230.95" x2="283.01" y2="230.95"/><line class="cls-7" x1="100.89" y1="244.3" x2="283.01" y2="244.3"/><line class="cls-7" x1="100.89" y1="257.66" x2="283.01" y2="257.66"/></g><g id="Character_1" data-name="Character 1"><polygon class="cls-6" points="193.94 283.86 220.02 283.86 220.91 234.86 210.36 170.22 180.17 170.62 194.47 240.94 193.94 283.86"/><path class="cls-5" d="M225.44,270l6.84,46.09h36.29c-1.31-5.27-12.36-49.83-12.36-52.56,0-2.89-7.8-51.28-9.81-54.18s-29-14-29-14l2.68,15.61Z" transform="translate(-12.34 -32.23)"/><path class="cls-8" d="M242.83,231c2.25,10.28,4.7,20.7,5.82,31.17,1.2,11.26-.68,23.28-1.32,34.55a111.1,111.1,0,0,0,.22,13.28" transform="translate(-12.34 -32.23)"/><ellipse class="cls-9" cx="170.49" cy="137.78" rx="13.72" ry="13.36"/><path class="cls-5" d="M155.13,316.09h51.22c.56-6,3.59-38.11,4.6-45,1.11-7.59-11.15-56.64-11.15-56.64l-9.37-21.41-37.91,15.16L167,286.06Z" transform="translate(-12.34 -32.23)"/><path class="cls-6" d="M192,186.93a4.58,4.58,0,0,0-3.2,2c-1,1.19-2.91,9.79-3.21,11.58-.54,3.21-1.25,26.72-1.25,26.72s17.46-8.9,18.17-8.9,8.56,3.38,8.56,3.38a11.14,11.14,0,0,0,3.2-.89c.71-.53,5-6.41,5-6.41L234.43,224s-11.4-26.55-14.07-30.82-4.63-5.53-6.41-6.06S192,186.93,192,186.93Z" transform="translate(-12.34 -32.23)"/><path class="cls-6" d="M191.5,163.41s2,15.15,1.24,20.14-2.31,2.49-.71,8.19,13.72,24.41,16.21,27.62,5,2.13,5.88-1.25,1.61-24.05,1.61-24.05l2.49-9.09Z" transform="translate(-12.34 -32.23)"/><polygon class="cls-5" points="189.04 148.98 202.41 165.06 203.39 161.83 205.88 152.74 189.04 148.98"/><path class="cls-6" d="M233.43,147.69s-.34,14.43-.18,17.5a28.9,28.9,0,0,1-2.42,13.27c-2.27,4.69-9.22,9.22-13,9.22s-11.16-2.75-16.5-6.47c-4.63-3.23-9.22-9.22-10.51-11s-3.24-9.22-3.24-9.22l-1.13-6.15-1.13-5s10.19.33,15.69-5.34,17.15-16.82,17.15-16.82l13.59,13.75Z" transform="translate(-12.34 -32.23)"/><path class="cls-3" d="M220.31,153.54s-.16,4.7,1,6.64,4.21,4.36,3.4,5.66-5.5,1.46-6,1.13" transform="translate(-12.34 -32.23)"/><path class="cls-3" d="M210,170.21s2.75,5.17,9.7,4.37" transform="translate(-12.34 -32.23)"/><path class="cls-3" d="M215.13,150.63a10.55,10.55,0,0,0-10-.65" transform="translate(-12.34 -32.23)"/><path class="cls-3" d="M222.41,149.66s4.37-4,8.09-.48" transform="translate(-12.34 -32.23)"/><path class="cls-10" d="M211.25,157.59c0,1.52-.69,2.75-1.54,2.75s-1.53-1.23-1.53-2.75.69-2.75,1.53-2.75S211.25,156.07,211.25,157.59Z" transform="translate(-12.34 -32.23)"/><path class="cls-10" d="M228.24,157.1c0,1.52-.69,2.75-1.54,2.75s-1.54-1.23-1.54-2.75.69-2.75,1.54-2.75S228.24,155.58,228.24,157.1Z" transform="translate(-12.34 -32.23)"/><path class="cls-9" d="M217.71,131.83A35,35,0,0,1,209,145.09c-6.37,6-16,7.8-16,7.8s.52,2.47-.13,3.38a9.11,9.11,0,0,1-2.08,1.82s-3.77.65-7.28-3.12-3.12-21.06,3.51-29.64,27-9.87,32.89-7.4,3.64,3.63,3.64,3.63,9.09,4,14.68,10.53-4.81,15.6-4.81,15.6Z" transform="translate(-12.34 -32.23)"/><path class="cls-5" d="M184.88,154.35S183.1,130.57,197,119.08l6.15-1.61s-14.07,13.26-15.2,37.37Z" transform="translate(-12.34 -32.23)"/><path class="cls-5" d="M193.5,159.45c2.13,4.13,1.12,8.89-2.26,10.63s-7.84-.2-10-4.33-1.12-8.89,2.26-10.62S191.37,155.32,193.5,159.45Z" transform="translate(-12.34 -32.23)"/><path class="cls-3" d="M190.06,165.68s9.54,12.45,21.19,16.82" transform="translate(-12.34 -32.23)"/><path class="cls-5" d="M214.11,183.32c-.46,1.11-2,1.52-3.39.93a2.23,2.23,0,1,1,3.39-.93Z" transform="translate(-12.34 -32.23)"/><path class="cls-6" d="M204.12,265.36s6-4.26,6.45-4.73,4.41-5.82,5.51-7.4,3.15-3,4.57-4.25a30.83,30.83,0,0,0,4.88-6c1.1-1.89,2.52-3.63,3-1.58s-.78,4.41-1.26,5.83a26.43,26.43,0,0,1-2,3.93s5.82-3.62,9.29-4.25,7.87-.63,8,.48-.95,1.41-2.52,2-5.83,2.21-7.4,2.84a47.11,47.11,0,0,0-5.83,3.78s8-1.89,9.76-2.37a40.54,40.54,0,0,1,6.93-.63,1.48,1.48,0,0,1,.47,2.68,33.37,33.37,0,0,1-3.77,2.2,22.83,22.83,0,0,1-2.37,3.15,54.52,54.52,0,0,0-4.56,6,16.48,16.48,0,0,1-6.46,5.35c-2.52,1.26-13.22,2.36-13.22,2.36l-7.25,3.62Z" transform="translate(-12.34 -32.23)"/><path class="cls-3" d="M240.18,258s-9.77,2.37-12,3.94" transform="translate(-12.34 -32.23)"/><path class="cls-3" d="M235,264.41s-5.51,2.68-6.14,2.83" transform="translate(-12.34 -32.23)"/><path class="cls-5" d="M166.57,203.33s-16.28,4-16.72,6.46-12,77.6-12.71,81-1.56,8.92.67,9.36,68.9-20.29,68.9-20.29l-3.22-16-34.91,4,5.13-31.44" transform="translate(-12.34 -32.23)"/><line class="cls-8" x1="154.17" y1="235.81" x2="138.39" y2="236.63"/><polyline class="cls-8" points="184.87 233.16 154.17 235.81 160.83 210.15"/></g><g id="Speech_Bubble" data-name="Speech Bubble"><path class="cls-5" d="M317.52,60.27h-71.8a6.5,6.5,0,0,0-6.49,6.49v36.81a6.5,6.5,0,0,0,6.49,6.49h12.67l-9.07,21.53,23.28-21.53h44.92a6.5,6.5,0,0,0,6.49-6.49V66.76A6.5,6.5,0,0,0,317.52,60.27Z" transform="translate(-12.34 -32.23)"/><path class="cls-6" d="M314.51,58.12h-71.8a6.5,6.5,0,0,0-6.49,6.49v36.81a6.5,6.5,0,0,0,6.49,6.49h12.67l-9.07,21.53,23.28-21.53h44.92a6.5,6.5,0,0,0,6.49-6.49V64.61A6.5,6.5,0,0,0,314.51,58.12Z" transform="translate(-12.34 -32.23)"/><circle class="cls-10" cx="250.05" cy="50.79" r="3.36"/><circle class="cls-10" cx="266.27" cy="50.79" r="3.36"/><circle class="cls-10" cx="282.49" cy="50.79" r="3.36"/></g></svg>