<svg id="Layer_1" data-name="Layer 1" xmlns="http://www.w3.org/2000/svg" viewBox="0 0 685 240"><defs><style>.cls-1{fill:#92e3a9;}.cls-2{font-size:60.38px;fill:#3f4d4f;font-family:Poppins-Medium, Poppins Medium;font-weight:500;}</style></defs><path d="M272.26,80.34v34.71h40.83v15.82H272.26v36.24h45.93v15.82H252.86V64.52h65.33V80.34Z"/><path d="M361.4,167.28h40v15.65H342V64.69H361.4Z"/><path d="M436.76,64.69v75.37q0,13.44,7.06,20.24t19.65,6.81q12.76,0,19.82-6.81t7.06-20.24V64.69h19.4v75q0,14.46-6.3,24.5a39,39,0,0,1-16.84,15,57.36,57.36,0,0,1-46.53,0,38.21,38.21,0,0,1-16.59-15q-6.12-10-6.12-24.5v-75Z"/><path d="M553.32,100v84.93H533.93V100Z"/><path class="cls-1" d="M553.32,64V85.93H533.93V64Z"/><path d="M634.11,123.9l36.75,59H649.08l-26.71-42.87-25,42.87H575.75l36.75-59L575.58,64.69h21.78l26.88,43.21,25.18-43.21H671Z"/><path class="cls-1" d="M171.38,187.24l-25-24.72a45.59,45.59,0,0,0,12.37-31.09H173.6a9.44,9.44,0,1,0,0-2.94H158.68a45.41,45.41,0,0,0-7.2-22l13-15a23.47,23.47,0,1,0,10.89-44.25c-19.11,0-30.2,21.74-19,37.2L144.53,98.1a45.57,45.57,0,0,0-34.88-12.52V46.72a12.43,12.43,0,1,0-2.94,0V85.88A45.6,45.6,0,0,0,84.38,95.5L69.59,80.36a12.21,12.21,0,1,0-3.5,3.41l14.63,15A45.7,45.7,0,0,0,67.4,126.54H52.82a18.31,18.31,0,1,0,0,6.84h14.4a45.66,45.66,0,0,0,14.06,30.89l-6.32,14a16.29,16.29,0,1,0-4.37,32c16.14,0,22.46-21.13,8.83-30l5.73-12.73a45.64,45.64,0,0,0,50.4,3.47L161.75,197a18.06,18.06,0,1,0,9.63-9.74Zm-8.73-116.5a12.71,12.71,0,1,1,12.71,12.71A12.72,12.72,0,0,1,162.65,70.74Zm-64-36.36a9.5,9.5,0,1,1,8,9.37A9.51,9.51,0,0,1,98.68,34.38ZM52.18,73.51a7.32,7.32,0,0,1,7.31-7.31c7.79,0,10.16,10.66,3.06,14A7.31,7.31,0,0,1,52.18,73.51Zm18.41,131.9a11.4,11.4,0,1,1,6.79-20.55C86.21,191.45,81.48,205.41,70.59,205.41ZM189.41,130c0,7.66-11.08,9-12.82,1.47a6.35,6.35,0,0,1,0-2.94C178.32,121,189.41,122.28,189.41,130ZM34.84,141.43a11.47,11.47,0,1,1,10.94-8.05A11.49,11.49,0,0,1,34.84,141.43Zm55.72,14.14C68.47,135.21,82.93,98.16,113,98.16a33.13,33.13,0,0,1,33,30.33C148.4,158.4,112.72,176,90.56,155.57ZM175.37,207a4.37,4.37,0,1,1,7.44-3.11A4.37,4.37,0,0,1,175.37,207Z"/><text class="cls-2" transform="translate(94.47 145.85)">e</text></svg>