<svg id="Layer_1" data-name="Layer 1" xmlns="http://www.w3.org/2000/svg" viewBox="0 0 806.33 250.41"><defs><style>.cls-1,.cls-3{fill:#f1f6f4;}.cls-2{fill:#92e3a9;}.cls-3{font-size:60.38px;font-family:Poppins-Medium, Poppins Medium;font-weight:500;}</style></defs><path class="cls-1" d="M326.39,87.82v34.71h40.84v15.82H326.39v36.24h45.94v15.82H307V72h65.33V87.82Z"/><path class="cls-1" d="M415.54,174.76h40v15.65H396.14V72.17h19.4Z"/><path class="cls-1" d="M490.9,72.17v75.37q0,13.44,7.06,20.24t19.65,6.81q12.76,0,19.82-6.81t7.06-20.24V72.17h19.4v75q0,14.46-6.3,24.49a39,39,0,0,1-16.84,15,57.36,57.36,0,0,1-46.53,0,38.17,38.17,0,0,1-16.59-15q-6.12-10-6.12-24.49v-75Z"/><path class="cls-1" d="M607.46,107.48v84.93h-19.4V107.48Z"/><path class="cls-2" d="M607.46,71.48V93.41h-19.4V71.48Z"/><path class="cls-1" d="M688.25,131.37l36.74,59H703.22l-26.71-42.87-25,42.87H629.89l36.75-59-36.92-59.2H651.5l26.88,43.21,25.18-43.21h21.61Z"/><path class="cls-2" d="M225.52,194.72l-25-24.72a45.55,45.55,0,0,0,12.38-31.09h14.84a9.44,9.44,0,1,0,0-2.94H212.82a45.48,45.48,0,0,0-7.2-22l13-15A23.47,23.47,0,1,0,229.5,54.75c-19.11,0-30.2,21.74-19,37.2l-11.81,13.63a45.59,45.59,0,0,0-34.88-12.53V54.19a12.43,12.43,0,1,0-2.94,0V93.36A45.6,45.6,0,0,0,138.52,103L123.73,87.84a12.21,12.21,0,1,0-3.5,3.41l14.63,15A45.68,45.68,0,0,0,121.54,134H107a18.32,18.32,0,1,0,0,6.85h14.4a45.62,45.62,0,0,0,14.06,30.89L129.1,185.8a16.29,16.29,0,1,0-4.38,32c16.15,0,22.47-21.14,8.84-30l5.73-12.73a45.64,45.64,0,0,0,50.4,3.47l26.2,25.91a18.06,18.06,0,1,0,9.63-9.74Zm-8.73-116.5A12.71,12.71,0,1,1,229.5,90.93,12.72,12.72,0,0,1,216.79,78.22Zm-64-36.37a9.5,9.5,0,1,1,8,9.38A9.52,9.52,0,0,1,152.82,41.85ZM106.31,81a7.34,7.34,0,0,1,7.32-7.32c7.79,0,10.16,10.67,3.06,14A7.32,7.32,0,0,1,106.31,81Zm18.41,131.9a11.4,11.4,0,1,1,6.8-20.55C140.35,198.93,135.62,212.89,124.72,212.89Zm118.83-75.45c0,7.66-11.08,9-12.83,1.47a6.35,6.35,0,0,1,0-2.94C232.46,128.48,243.55,129.76,243.55,137.44ZM89,148.9a11.47,11.47,0,1,1,10.94-8A11.47,11.47,0,0,1,89,148.9Zm55.72,14.15c-22.09-20.36-7.64-57.41,22.4-57.41a33.13,33.13,0,0,1,33,30.33C202.54,165.88,166.86,183.47,144.7,163.05Zm84.81,51.39a4.36,4.36,0,1,1,7.44-3.1A4.36,4.36,0,0,1,229.51,214.44Z"/><text class="cls-3" transform="translate(148.61 153.32)">e</text></svg>